<svg width="22" height="22" viewBox="0 0 22 22" fill="none" xmlns="http://www.w3.org/2000/svg">
<path fill-rule="evenodd" clip-rule="evenodd" d="M21.56 11.2495C21.56 10.4695 21.49 9.71951 21.36 8.99951H11V13.2545H16.92C16.665 14.6295 15.89 15.7945 14.725 16.5745V19.3345H18.28C20.36 17.4195 21.56 14.5995 21.56 11.2495Z" fill="#4285F4"/>
<path fill-rule="evenodd" clip-rule="evenodd" d="M11 21.9998C13.97 21.9998 16.46 21.0148 18.28 19.3348L14.725 16.5748C13.74 17.2348 12.48 17.6248 11 17.6248C8.13498 17.6248 5.70998 15.6898 4.84498 13.0898H1.16998V15.9398C2.97998 19.5348 6.69998 21.9998 11 21.9998Z" fill="#34A853"/>
<path fill-rule="evenodd" clip-rule="evenodd" d="M4.845 13.0896C4.625 12.4296 4.5 11.7246 4.5 10.9996C4.5 10.2746 4.625 9.56957 4.845 8.90957V6.05957H1.17C0.425 7.54457 0 9.22457 0 10.9996C0 12.7746 0.425 14.4546 1.17 15.9396L4.845 13.0896Z" fill="#FBBC05"/>
<path fill-rule="evenodd" clip-rule="evenodd" d="M11 4.375C12.615 4.375 14.065 4.93 15.205 6.02L18.36 2.865C16.455 1.09 13.965 0 11 0C6.69998 0 2.97998 2.465 1.16998 6.06L4.84498 8.91C5.70998 6.31 8.13498 4.375 11 4.375Z" fill="#EA4335"/>
</svg>
