<svg width="112" height="40" viewBox="0 0 112 40" fill="none" xmlns="http://www.w3.org/2000/svg">
<path d="M23.9678 8.88892L7.62807 17.7778V8.88893L23.9678 8.88892Z" fill="#0E46C7"/>
<path d="M7.66034 8.88892L24.0001 3.92066e-05V8.88891L7.66034 8.88892Z" fill="#0E46C7"/>
<path d="M16.3397 24.0763L-4.00138e-05 32.9651V24.0763L16.3397 24.0763Z" fill="#0E46C7"/>
<path d="M0.0322266 24.0763L16.372 15.1874V24.0763L0.0322266 24.0763Z" fill="#0E46C7"/>
<path d="M23.9678 31.1111L7.62807 40V31.1111L23.9678 31.1111Z" fill="#0E46C7"/>
<path d="M7.66034 31.1111L24.0001 22.2222V31.1111L7.66034 31.1111Z" fill="#0E46C7"/>
<path d="M34.1705 11.9411L36.5568 16.174H36.6705L39.0852 11.9411H43.4886L39.142 19.2138L43.6591 26.4865H39.142L36.6705 22.1683H36.5568L34.0852 26.4865H29.5966L34.0568 19.2138L29.7386 11.9411H34.1705ZM48.9698 26.4865H44.7085L49.5096 11.9411H54.9073L59.7085 26.4865H55.4471L52.2653 15.9467H52.1516L48.9698 26.4865ZM48.1744 20.7479H56.1857V23.7024H48.1744V20.7479ZM61.1094 11.9411H66.0241L69.4048 20.1797H69.5753L72.956 11.9411H77.8707V26.4865H74.0071V18.0774H73.8935L70.6548 26.3729H68.3253L65.0866 18.0206H64.973V26.4865H61.1094V11.9411ZM83.6911 11.9411V26.4865H79.7422V11.9411H83.6911ZM85.5625 26.4865V11.9411H95.7898V15.1229H89.5114V17.6229H95.1648V20.8047H89.5114V26.4865H85.5625ZM96.6456 11.9411H101.049L103.89 17.8501H104.004L106.844 11.9411H111.248L105.907 21.9126V26.4865H101.987V21.9126L96.6456 11.9411Z" fill="black"/>
</svg>
