<svg width="196" height="70" viewBox="0 0 196 70" fill="none" xmlns="http://www.w3.org/2000/svg">
<path d="M41.9434 15.5555L13.3488 31.111L13.3488 15.5555L41.9434 15.5555Z" fill="white"/>
<path d="M13.4062 15.5555L42.0008 -2.19875e-05V15.5555L13.4062 15.5555Z" fill="white"/>
<path d="M28.5938 42.1333L-0.00083201 57.6889L-0.00083201 42.1333L28.5938 42.1333Z" fill="white"/>
<path d="M0.0546875 42.1333L28.6493 26.5778V42.1333L0.0546875 42.1333Z" fill="white"/>
<path d="M41.9434 54.4443L13.3488 69.9998L13.3488 54.4443L41.9434 54.4443Z" fill="white"/>
<path d="M13.4062 54.4443L42.0008 38.8888V54.4443L13.4062 54.4443Z" fill="white"/>
<path d="M59.7963 21.6468L63.9725 29.0544H64.1713L68.3972 21.6468H76.1032L68.4966 34.374L76.4015 47.1013H68.4966L64.1713 39.5445H63.9725L59.6472 47.1013H51.7921L59.5975 34.374L52.0407 21.6468H59.7963ZM85.6952 47.1013H78.2378L86.6398 21.6468H96.0859L104.488 47.1013H97.0305L91.4623 28.6567H91.2634L85.6952 47.1013ZM84.3032 37.0587H98.3231V42.2292H84.3032V37.0587ZM106.939 21.6468H115.54L121.456 36.0644H121.755L127.671 21.6468H136.272V47.1013H129.51V32.3854H129.312L123.644 46.9025H119.567L113.9 32.286H113.701V47.1013H106.939V21.6468ZM146.457 21.6468V47.1013H139.547V21.6468H146.457ZM149.732 47.1013V21.6468H167.63V27.215H156.643V31.59H166.536V37.1581H156.643V47.1013H149.732ZM169.128 21.6468H176.834L181.805 31.9877H182.004L186.976 21.6468H194.682L185.335 39.0971V47.1013H178.474V39.0971L169.128 21.6468Z" fill="white"/>
</svg>
